<svg width="44" height="44" viewBox="0 0 44 44" fill="none" xmlns="http://www.w3.org/2000/svg">
<circle cx="22" cy="22" r="21.5" transform="rotate(-180 22 22)" fill="#F4F4F4" stroke="#222222"/>
<path d="M21 21C21 21.5523 21.4477 22 22 22C22.5523 22 23 21.5523 23 21L21 21ZM22.7071 8.29289C22.3166 7.90237 21.6834 7.90237 21.2929 8.29289L14.9289 14.6569C14.5384 15.0474 14.5384 15.6805 14.9289 16.0711C15.3195 16.4616 15.9526 16.4616 16.3431 16.0711L22 10.4142L27.6569 16.0711C28.0474 16.4616 28.6805 16.4616 29.0711 16.0711C29.4616 15.6805 29.4616 15.0474 29.0711 14.6569L22.7071 8.29289ZM23 21L23 9L21 9L21 21L23 21Z" fill="#222222"/>
<path d="M11.9767 26.872H9.37267V25.504H16.0927V26.872H13.4887V34H11.9767V26.872ZM17.2713 29.788C17.2713 29.108 17.3833 28.492 17.6073 27.94C17.8313 27.38 18.1393 26.904 18.5313 26.512C18.9313 26.12 19.4033 25.82 19.9473 25.612C20.4993 25.396 21.1033 25.288 21.7593 25.288C22.4233 25.28 23.0313 25.38 23.5833 25.588C24.1353 25.788 24.6113 26.084 25.0113 26.476C25.4113 26.868 25.7233 27.34 25.9473 27.892C26.1713 28.444 26.2833 29.06 26.2833 29.74C26.2833 30.404 26.1713 31.008 25.9473 31.552C25.7233 32.096 25.4113 32.564 25.0113 32.956C24.6113 33.348 24.1353 33.656 23.5833 33.88C23.0313 34.096 22.4233 34.208 21.7593 34.216C21.1033 34.216 20.4993 34.112 19.9473 33.904C19.4033 33.688 18.9313 33.388 18.5313 33.004C18.1393 32.612 17.8313 32.144 17.6073 31.6C17.3833 31.056 17.2713 30.452 17.2713 29.788ZM18.8553 29.692C18.8553 30.148 18.9233 30.568 19.0593 30.952C19.2033 31.336 19.4033 31.668 19.6593 31.948C19.9153 32.228 20.2193 32.448 20.5713 32.608C20.9313 32.768 21.3313 32.848 21.7713 32.848C22.2113 32.848 22.6113 32.768 22.9713 32.608C23.3313 32.448 23.6393 32.228 23.8953 31.948C24.1513 31.668 24.3473 31.336 24.4833 30.952C24.6273 30.568 24.6993 30.148 24.6993 29.692C24.6993 29.268 24.6273 28.872 24.4833 28.504C24.3473 28.136 24.1513 27.816 23.8953 27.544C23.6393 27.264 23.3313 27.048 22.9713 26.896C22.6113 26.736 22.2113 26.656 21.7713 26.656C21.3313 26.656 20.9313 26.736 20.5713 26.896C20.2193 27.048 19.9153 27.264 19.6593 27.544C19.4033 27.816 19.2033 28.136 19.0593 28.504C18.9233 28.872 18.8553 29.268 18.8553 29.692ZM28.3234 25.504H31.1794C31.5874 25.504 31.9794 25.544 32.3554 25.624C32.7394 25.704 33.0754 25.84 33.3634 26.032C33.6514 26.216 33.8794 26.468 34.0474 26.788C34.2234 27.1 34.3114 27.492 34.3114 27.964C34.3114 28.5 34.2194 28.932 34.0354 29.26C33.8514 29.588 33.6034 29.844 33.2914 30.028C32.9794 30.204 32.6154 30.324 32.1994 30.388C31.7914 30.452 31.3634 30.484 30.9154 30.484H29.8354V34H28.3234V25.504ZM30.7474 29.188C30.9634 29.188 31.1874 29.18 31.4194 29.164C31.6514 29.148 31.8634 29.1 32.0554 29.02C32.2554 28.94 32.4154 28.82 32.5354 28.66C32.6634 28.5 32.7274 28.276 32.7274 27.988C32.7274 27.724 32.6714 27.516 32.5594 27.364C32.4474 27.204 32.3034 27.084 32.1274 27.004C31.9514 26.916 31.7554 26.86 31.5394 26.836C31.3234 26.812 31.1154 26.8 30.9154 26.8H29.8354V29.188H30.7474Z" fill="#222222"/>
</svg>
