<svg width="111" height="111" viewBox="0 0 111 111" fill="none" xmlns="http://www.w3.org/2000/svg">
<path d="M111 0H0V111H111V0Z" fill="#E1251B"/>
<path d="M65.8788 86.1434V84.208H66.9414C67.5739 84.208 68.3455 84.3092 68.3455 85.1567C68.3455 86.0042 67.5296 86.1434 66.8339 86.1434H65.8788ZM68.0293 87.0984C68.4946 87.0473 68.922 86.8177 69.2216 86.4579C69.5212 86.0982 69.6697 85.6363 69.6358 85.1694C69.6358 83.5629 68.3708 83.1201 67.0552 83.1201H64.6455V90.2545H65.9105V87.2312H66.8086L68.4151 90.2545H69.9014L68.0293 87.0984Z" fill="white"/>
<path d="M59.7501 89.2805C58.3207 89.2805 57.372 88.1546 57.372 86.6367C57.3554 86.3136 57.4046 85.9906 57.5168 85.6872C57.6289 85.3838 57.8016 85.1064 58.0244 84.8718C58.2471 84.6373 58.5153 84.4505 58.8125 84.3229C59.1097 84.1953 59.4298 84.1295 59.7533 84.1295C60.0768 84.1295 60.3968 84.1953 60.6941 84.3229C60.9913 84.4505 61.2595 84.6373 61.4822 84.8718C61.705 85.1064 61.8777 85.3838 61.9898 85.6872C62.102 85.9906 62.1512 86.3136 62.1346 86.6367C62.1346 88.1546 61.1859 89.2805 59.7501 89.2805ZM59.7501 82.9557C58.7571 82.9557 57.8047 83.3501 57.1025 84.0523C56.4003 84.7545 56.0059 85.7069 56.0059 86.6999C56.0059 87.693 56.4003 88.6453 57.1025 89.3475C57.8047 90.0497 58.7571 90.4442 59.7501 90.4442C60.2445 90.4605 60.7368 90.3742 61.1961 90.1907C61.6554 90.0073 62.0717 89.7306 62.4187 89.3782C62.7658 89.0258 63.0361 88.6053 63.2125 88.1433C63.3889 87.6812 63.4677 87.1876 63.4438 86.6936C63.4438 84.404 61.9195 82.8987 59.7501 82.9557Z" fill="white"/>
<path d="M24.1042 89.1794H22.9658V87.1175H24.1485C25.1478 87.1175 25.6158 87.3831 25.6158 88.1295C25.6158 89.0655 24.7367 89.1794 24.1042 89.1794ZM22.9658 84.2207H23.984C24.9138 84.2207 25.3249 84.5243 25.3249 85.1378C25.3249 85.7513 24.9138 86.017 24.0916 86.017H22.9658V84.2207ZM25.3565 86.504C25.7036 86.4194 26.0116 86.2193 26.23 85.9366C26.4483 85.6539 26.5641 85.3053 26.5582 84.9481C26.5582 83.6831 25.483 83.1519 24.4331 83.1519H21.7324V90.2546H24.2623C25.5716 90.2546 26.8871 89.7676 26.8871 88.218C26.8978 87.795 26.75 87.3834 26.4726 87.0639C26.1953 86.7444 25.8084 86.5401 25.3881 86.4913" fill="white"/>
<path d="M91.2476 65.43C91.0941 65.5962 90.907 65.7279 90.6987 65.8162C90.4904 65.9045 90.2657 65.9475 90.0395 65.9423C89.8135 65.9463 89.5892 65.9028 89.3811 65.8145C89.1729 65.7263 88.9857 65.5952 88.8315 65.43C88.5167 65.0927 88.3416 64.6485 88.3416 64.1871C88.3416 63.7258 88.5167 63.2816 88.8315 62.9443C88.9864 62.7803 89.1731 62.6496 89.3803 62.5603C89.5875 62.4709 89.8107 62.4249 90.0364 62.4249C90.262 62.4249 90.4852 62.4709 90.6924 62.5603C90.8996 62.6496 91.0863 62.7803 91.2412 62.9443C91.5574 63.2809 91.7334 63.7253 91.7334 64.1871C91.7334 64.6489 91.5574 65.0934 91.2412 65.43H91.2476ZM91.4373 62.7483C91.2556 62.5602 91.038 62.4107 90.7973 62.3086C90.5566 62.2064 90.2978 62.1538 90.0364 62.1538C89.7749 62.1538 89.5161 62.2064 89.2754 62.3086C89.0348 62.4107 88.8171 62.5602 88.6354 62.7483C88.2657 63.1373 88.0596 63.6536 88.0596 64.1903C88.0596 64.727 88.2657 65.2433 88.6354 65.6324C88.8171 65.8204 89.0348 65.9699 89.2754 66.072C89.5161 66.1742 89.7749 66.2268 90.0364 66.2268C90.2978 66.2268 90.5566 66.1742 90.7973 66.072C91.038 65.9699 91.2556 65.8204 91.4373 65.6324C91.6252 65.4426 91.7733 65.2174 91.8733 64.9698C91.9732 64.7223 92.0228 64.4573 92.0192 64.1903C92.0238 63.9232 91.9747 63.6579 91.8747 63.4102C91.7748 63.1624 91.626 62.9373 91.4373 62.7483Z" fill="white"/>
<path d="M67.6756 62.356H79.2246V65.1452H71.6539C71.6539 65.1452 70.7937 65.1452 70.7937 65.9484V67.7131C70.7937 67.7131 70.7937 68.5163 71.7993 68.5163H78.0735V71.2296H71.5464C71.5464 71.2296 70.8317 71.2676 70.7937 72.2226C70.7558 73.1777 70.7937 74.3857 70.7937 74.3857C70.7737 74.5323 70.7855 74.6815 70.8283 74.8231C70.8711 74.9647 70.9439 75.0954 71.0417 75.2064C71.1395 75.3174 71.26 75.4061 71.3951 75.4664C71.5302 75.5266 71.6767 75.5571 71.8246 75.5558H79.212V78.3766H69.4465C69.1946 78.3792 68.9449 78.3281 68.7142 78.2268C68.4835 78.1255 68.2769 77.9763 68.1082 77.7891C67.9396 77.6019 67.8126 77.3809 67.7359 77.1409C67.6591 76.9009 67.6342 76.6473 67.6629 76.397L67.6756 62.356Z" fill="white"/>
<path d="M26.8551 65.9484V78.3703H23.6168V65.9484C23.6168 65.9484 23.6168 65.1389 22.9843 65.1389H18.9111V62.356H31.5607V65.1452H27.4686C27.4686 65.1452 26.8361 65.1452 26.8361 65.9548" fill="white"/>
<path d="M33.6663 87.636C33.6663 88.3758 33.3725 89.0852 32.8494 89.6083C32.3263 90.1314 31.6169 90.4252 30.8771 90.4252C30.1374 90.4252 29.4279 90.1314 28.9048 89.6083C28.3818 89.0852 28.0879 88.3758 28.0879 87.636V83.1201H29.3528V87.5917C29.3393 87.804 29.3694 88.0168 29.4413 88.2169C29.5132 88.4171 29.6254 88.6003 29.7709 88.7554C29.9164 88.9105 30.0922 89.0342 30.2873 89.1187C30.4825 89.2032 30.6929 89.2468 30.9056 89.2468C31.1183 89.2468 31.3287 89.2032 31.5238 89.1187C31.719 89.0342 31.8948 88.9105 32.0403 88.7554C32.1858 88.6003 32.298 88.4171 32.3699 88.2169C32.4418 88.0168 32.4719 87.804 32.4583 87.5917V83.1201H33.7233L33.6663 87.636Z" fill="white"/>
<path d="M36.4247 83.1265H35.1914V90.2545H36.4247V83.1265Z" fill="white"/>
<path d="M40.2384 65.0313C39.9917 65.0313 38.2777 65.0313 37.2784 65.0313C36.4309 65.0313 36.4309 65.4741 36.4309 66.2963V78.3956H33.1104V62.356H41.2757C41.2757 62.356 43.7044 62.6406 44.5519 64.2534C45.3994 65.8662 45.6587 67.77 44.5898 69.3448C44.1229 69.9429 43.4714 70.3698 42.7367 70.5592L42.6671 70.7047C42.6671 70.7047 44.1218 70.7047 44.6594 72.6464C45.0049 74.0955 45.1496 75.5852 45.0895 77.0737C45.1432 77.5317 45.3154 77.9677 45.5892 78.3387H42.1295C42.0008 77.9613 41.9284 77.5671 41.9145 77.1686C41.8893 76.077 41.8048 74.9875 41.6615 73.905C41.5223 73.3484 40.6305 71.8874 39.4225 71.8874H37.3859V69.3575H40.5483C41.0151 69.1942 41.4165 68.8841 41.6924 68.4737C41.9683 68.0632 42.1039 67.5745 42.0789 67.0806C42.0978 66.8214 42.0644 66.5611 41.9808 66.3151C41.8973 66.0691 41.7652 65.8423 41.5923 65.6483C41.4195 65.4542 41.2095 65.2968 40.9748 65.1854C40.7401 65.074 40.4853 65.0109 40.2257 64.9997" fill="white"/>
<path d="M42.1612 90.2545H37.9805V83.1265H39.2138V89.1034H42.1612V90.2545Z" fill="white"/>
<path d="M46.9807 84.2712H44.8492V90.2545H43.6222V84.2712H41.4971V83.1201H46.9807V84.2712Z" fill="white"/>
<path d="M49.884 62.356H46.709V78.3767H49.884V62.356Z" fill="white"/>
<path d="M55.2656 84.2712H52.0273V86.1434H55.0758V87.2881H52.0273V90.2545H50.7939V83.1201H55.2656V84.2712Z" fill="white"/>
<path d="M77.9658 90.2545H73.7852V83.1265H75.0185V89.1034H77.9658V90.2545Z" fill="white"/>
<path d="M80.1093 83.1265H78.876V90.2545H80.1093V83.1265Z" fill="white"/>
<path d="M80.9569 76.5298V62.356H84.3091V74.4932C84.2817 74.6323 84.2879 74.7758 84.327 74.912C84.3662 75.0482 84.4373 75.1731 84.5343 75.2764C84.6314 75.3796 84.7517 75.4582 84.8852 75.5057C85.0187 75.5532 85.1616 75.5682 85.3021 75.5495H91.7091V78.3703H82.5634C82.0951 78.3347 81.6599 78.1151 81.3529 77.7596C81.0459 77.404 80.8922 76.9414 80.9253 76.4729" fill="white"/>
<path d="M86.1376 84.2712H82.893V86.1434H85.9542V87.2881H82.893V90.2545H81.666V83.1201H86.1376V84.2712Z" fill="white"/>
<path d="M92.0892 90.2545H87.3203V83.1265H91.9121V84.2713H88.5536V86.0232H91.735V87.168H88.5536V89.1034H92.0892V90.2545Z" fill="white"/>
<path d="M90.3365 64.0889C90.2209 64.1299 90.0983 64.1471 89.976 64.1395H89.6218V63.33H89.957C90.1132 63.3191 90.2698 63.3473 90.4124 63.4122C90.4648 63.448 90.5062 63.4978 90.5319 63.5559C90.5576 63.614 90.5666 63.6781 90.5578 63.7411C90.5639 63.8152 90.5455 63.8894 90.5056 63.9522C90.4656 64.015 90.4062 64.063 90.3365 64.0889ZM90.9247 65.2717V65.1515V64.8226C90.92 64.6973 90.8782 64.5762 90.8045 64.4747C90.7608 64.4142 90.7051 64.3633 90.6409 64.3252C90.5767 64.2872 90.5054 64.2627 90.4313 64.2534C90.544 64.244 90.6526 64.2071 90.7476 64.1458C90.8179 64.0966 90.8741 64.0298 90.9107 63.9522C90.9473 63.8745 90.963 63.7887 90.9563 63.7031C90.9681 63.5858 90.942 63.4677 90.8816 63.3663C90.8212 63.265 90.7299 63.1857 90.6211 63.1402C90.4303 63.0737 90.2282 63.0457 90.0266 63.058H89.2676V65.297H89.6471V64.4178H89.957C90.0998 64.4051 90.2435 64.429 90.3744 64.4874C90.5136 64.5633 90.5831 64.7404 90.5831 64.9997V65.297H90.9436L90.9247 65.2717Z" fill="white"/>
<path d="M63.4819 74.1959H53.533C53.533 74.1959 52.2681 74.4932 53.0713 73.0954C53.8746 71.6976 57.9857 64.4368 57.9857 64.4368C57.9857 64.4368 58.4917 63.1718 59.2 64.4368C59.8325 65.5626 64.0511 72.9815 64.0511 72.9815C64.0511 72.9815 64.9746 74.1959 63.4819 74.1959ZM66.7582 69.933C66.5747 62.4255 60.4776 62.3433 60.4776 62.3433H51.8633V78.3576H59.8072C59.8072 78.3576 66.9669 78.579 66.7645 69.9204" fill="white"/>
</svg>
